{"title":"The Avengers 2012 HDCam NEW AUDIO XviD Feel-Free","uid":7267117,"size":1460996454,"categoryP":"video","categoryS":"movies","magnet":"?xt=urn:btih:1a5c0ad93b62a791f4fe4be7ca0b44d1d7f187ab&amp;dn=The+Avengers+2012+HDCam+NEW+AUDIO+XviD+Feel-Free&amp;tr=udp%3A%2F%2Ftracker.openbittorrent.com%3A80&amp;tr=udp%3A%2F%2Fopen.demonii.com%3A1337&amp;tr=udp%3A%2F%2Ftracker.coppersurfer.tk%3A6969&amp;tr=udp%3A%2F%2Fexodus.desync.com%3A6969","seeders":2,"leechers":0,"uploader":"yerisan710","files":8,"time":1336934064,"description":"Genre:Action | Adventure | Sci-Fi\n Language:English\n IMDb:http://www.imdb.com/title/tt0848228/\n Source:The Avengers 2012 HDCAM/INSPiRAL Thanks!\n Encoder:Tony\n \nFormat : AVI\n Format/Info : Audio Video Interleave\n File size : 1.36 GiB\n Duration : 2h 15mn\n Overall bit rate : 1 431 Kbps\n \nVideo\n ID : 0\n Format : MPEG-4 Visual\n Format profile : Advanced Simple@L5\n Format settings, BVOP : 1\n Format settings, QPel : No\n Format settings, GMC : No warppoints\n Format settings, Matrix : Default (H.263)\n Codec ID : XVID\n Codec ID/Hint : XviD\n Duration : 2h 15mn\n Bit rate : 1 229 Kbps\n Width : 640 pixels\n Height : 280 pixels\n Display aspect ratio : 2.25:1\n Frame rate : 29.970 fps\n Color space : YUV\n Chroma subsampling : 4:2:0\n Bit depth : 8 bits\n Scan type : Progressive\n Compression mode : Lossy\n Bits/(Pixel*Frame) : 0.229\n Stream size : 1.17 GiB (86%)\n Writing library : XviD 1.2.1 (UTC 2008-12-04)\n \nAudio\n ID : 1\n Format : AC-3\n Format/Info : Audio Coding 3\n Mode extension : CM (complete main)\n Codec ID : 2000\n Duration : 2h 15mn\n Bit rate mode : Constant\n Bit rate : 192 Kbps\n Channel(s) : 2 channels\n Channel positions : Front: L R\n Sampling rate : 48.0 KHz\n Bit depth : 16 bits\n Compression mode : Lossy\n Stream size : 186 MiB (13%)\n Alignment : Aligned on interleaves\n Interleave, duration : 34 ms (1.00 video frame)\n Interleave, preload duration : 512 ms\n \n\nPlot:\n Nick Fury of S.H.I.E.L.D. brings together a team of super humans to form The Avengers to help save the Earth from Loki and his army.\n \n","torrent":{"xt":"urn:btih:1a5c0ad93b62a791f4fe4be7ca0b44d1d7f187ab","amp;dn":"The+Avengers+2012+HDCam+NEW+AUDIO+XviD+Feel-Free","amp;tr":["udp%3A%2F%2Ftracker.openbittorrent.com%3A80","udp%3A%2F%2Fopen.demonii.com%3A1337","udp%3A%2F%2Ftracker.coppersurfer.tk%3A6969","udp%3A%2F%2Fexodus.desync.com%3A6969"],"infoHash":"1a5c0ad93b62a791f4fe4be7ca0b44d1d7f187ab","infoHashBuffer":{"type":"Buffer","data":[26,92,10,217,59,98,167,145,244,254,75,231,202,11,68,209,215,241,135,171]},"announce":[],"urlList":[]}}